<?xml version="1.0" encoding="UTF-8" standalone="no"?>
<svg
   xmlns:dc="http://purl.org/dc/elements/1.1/"
   xmlns:cc="http://creativecommons.org/ns#"
   xmlns:rdf="http://www.w3.org/1999/02/22-rdf-syntax-ns#"
   xmlns:svg="http://www.w3.org/2000/svg"
   xmlns="http://www.w3.org/2000/svg"
   xmlns:sodipodi="http://sodipodi.sourceforge.net/DTD/sodipodi-0.dtd"
   xmlns:inkscape="http://www.inkscape.org/namespaces/inkscape"
   version="1.1"
   id="svg1445"
   xml:space="preserve"
   width="48"
   height="48"
   viewBox="0 0 48 48"
   sodipodi:docname="quickbox-imagotipo.svg"
   inkscape:version="1.0.2 (1.0.2+r75+1)"><metadata
     id="metadata1451"><rdf:RDF><cc:Work
         rdf:about=""><dc:format>image/svg+xml</dc:format><dc:type
           rdf:resource="http://purl.org/dc/dcmitype/StillImage" /><dc:title></dc:title></cc:Work></rdf:RDF></metadata><defs
     id="defs1449"><clipPath
       clipPathUnits="userSpaceOnUse"
       id="clipPath1461"><path
         d="M 0,792 H 792 V 0 H 0 Z"
         id="path1459" /></clipPath></defs><sodipodi:namedview
     pagecolor="#ffffff"
     bordercolor="#666666"
     borderopacity="1"
     objecttolerance="10"
     gridtolerance="10"
     guidetolerance="10"
     inkscape:pageopacity="0"
     inkscape:pageshadow="2"
     inkscape:window-width="1600"
     inkscape:window-height="788"
     id="namedview1447"
     showgrid="false"
     inkscape:pagecheckerboard="true"
     showborder="true"
     borderlayer="false"
     inkscape:showpageshadow="false"
     inkscape:zoom="6.7925106"
     inkscape:cx="6.190387"
     inkscape:cy="43.875743"
     inkscape:window-x="0"
     inkscape:window-y="27"
     inkscape:window-maximized="1"
     inkscape:current-layer="g1457" /><g
     id="g1453"
     inkscape:groupmode="layer"
     inkscape:label="QuickBox logo"
     transform="matrix(1.3333333,0,0,-1.3333333,0,1056)"><g
       id="g1457"
       clip-path="url(#clipPath1461)"
       transform="translate(2.7703916,38.375508)"><g
         id="g1752"
         transform="matrix(0.09491661,0,0,0.09491661,-17.855682,688.60564)"><g
           id="g1493"
           transform="translate(224.9365,502.2876)"><path
             d="m 0,0 c 0.259,-0.102 0.798,-1.69 0.944,-1.949 1.021,-1.805 2.302,-3.464 3.696,-4.993 2.258,-2.477 4.868,-4.623 7.649,-6.487 3.79,-2.54 7.415,-4.258 11.859,-5.23 12.454,-2.725 25.329,-7.68 35.143,-15.99 0,0 -6.367,10.339 -6.857,11.088 -0.491,0.749 -16.052,9.231 -16.052,9.231 0,0 -36.381,14.329 -36.382,14.33"
             style="fill:#b9d9ec;fill-opacity:1;fill-rule:nonzero;stroke:none"
             id="path1495" /></g><g
           id="g1497"
           transform="translate(435.1152,507.1113)"><path
             d="M 0,0 C -0.079,0.038 2.392,14.009 2.513,14.522 4.3,22.104 5.577,29.82 6.233,37.584 7.827,56.451 3.234,77.349 -9.975,92.11 c -6.27,7.007 -13.956,12.403 -21.435,18.009 -12.172,9.124 -24.445,18.163 -34.638,29.53 -9.744,10.867 -18.103,22.883 -26.522,34.778 -0.158,0.221 -0.314,0.443 -0.471,0.664 0,0 -11.644,-44.689 11.346,-77.537 0,0 -7.158,-26.152 12.993,-40.87 0.284,-0.207 0.193,-3.142 0.242,-3.533 0.372,-2.981 1.108,-5.923 2.168,-8.734 3.396,-9.002 10.119,-15.73 18.751,-19.83 C -32.586,17.486 -18.049,9.394 -3.363,1.75 -2.244,1.168 -1.137,0.548 0,0"
             style="fill:#6cc5e9;fill-opacity:1;fill-rule:nonzero;stroke:none"
             id="path1499" /></g><g
           id="g1501"
           transform="translate(372.3838,565.1958)"><path
             d="m 0,0 c 0,0 0.703,-7.452 14.978,-9.421 0,0 16.203,-1.058 30.041,-15.23 l -4.664,8.122 -16.738,9.587 -8.905,3.088 z"
             style="fill:#b9d9ec;fill-opacity:1;fill-rule:nonzero;stroke:none"
             id="path1503" /></g><g
           id="g1505"
           transform="translate(355.8672,606.1973)"><path
             d="m 0,0 c 0.258,-0.102 0.798,-1.69 0.944,-1.949 1.021,-1.805 2.302,-3.464 3.696,-4.993 2.258,-2.477 4.867,-4.623 7.648,-6.487 3.791,-2.54 7.416,-4.258 11.86,-5.23 12.454,-2.725 25.329,-7.68 35.143,-15.99 0,0 -6.367,10.339 -6.857,11.088 -0.492,0.75 -16.053,9.231 -16.053,9.231 z"
             style="fill:#b9d9ec;fill-opacity:1;fill-rule:nonzero;stroke:none"
             id="path1507" /></g><g
           id="g1509"
           transform="translate(438.5352,544.9331)"><path
             d="m 0,0 c -0.624,-7.39 -1.854,-15.011 -3.654,-22.652 -0.057,-0.24 -0.32,-1.69 -0.599,-3.259 -1.341,0.599 -2.706,1.192 -2.79,1.233 -6.519,3.149 -13.059,6.256 -19.557,9.447 -5.466,2.684 -11.071,4.899 -16.322,8.05 -5.354,3.212 -10.415,6.994 -14.697,11.557 -2.837,3.024 -5.394,6.515 -6.768,10.465 -0.339,0.975 -0.615,1.986 -0.741,3.013 -0.025,0.201 0.048,0.895 -0.068,1.054 1.452,-2.003 4.694,-2.905 6.91,-3.659 2.662,-0.906 5.415,-1.496 8.165,-2.063 5.672,-1.17 11.218,-2.79 16.101,-5.985 4.659,-3.046 8.653,-6.974 12.378,-11.08 0.311,-0.342 0.64,-0.699 1.078,-0.849 0.436,-0.151 1.011,-0.009 1.183,0.419 0.08,0.202 0.062,0.427 0.036,0.641 -0.313,2.602 -1.435,5.064 -2.966,7.191 -3.722,5.173 -9.527,8.726 -15.138,11.526 -6.146,3.068 -12.758,5.567 -19.44,7.205 -22.441,6.007 -25.152,30.569 -25.477,36.899 0.094,0.445 0.075,0.897 -0.045,1.328 -0.001,0.104 -0.001,0.176 -0.001,0.176 15.493,-16.78 42.812,-13.613 57.28,-31.858 0.205,-0.259 5.244,-7.079 4.951,-3.403 -1.37,17.188 -25.676,25.048 -25.676,25.048 -21.899,6.342 -32.615,15.261 -40.352,29.561 -7.907,14.613 -9.392,33.336 -8.386,49.741 7.164,-10.112 14.614,-20.423 23.026,-29.803 9.975,-11.125 21.986,-20.121 33.601,-28.821 l 4.161,-3.109 c 6.383,-4.747 12.984,-9.656 18.309,-15.608 C -3.927,39.476 1.723,20.375 0,0 m -5.641,-33.483 c 0.021,0.032 0.053,0.083 0.084,0.131 -0.008,-0.051 -0.019,-0.109 -0.028,-0.16 z m -5.651,89.653 c -5.705,6.376 -12.538,11.458 -19.146,16.373 l -4.146,3.097 c -11.395,8.536 -23.18,17.363 -32.782,28.072 -9.031,10.071 -17.024,21.375 -24.753,32.307 l -2.037,2.88 c -0.634,0.896 -1.769,1.299 -2.81,1.147 -1.081,-0.197 -1.949,-1.003 -2.226,-2.065 -0.484,-1.857 -11.47,-45.415 11.042,-78.815 -1.216,-5.667 -4.587,-27.887 13.409,-41.864 0.012,-0.418 0.016,-0.887 0.019,-1.155 0.004,-0.564 0.021,-1.011 0.04,-1.168 0.398,-3.183 1.182,-6.339 2.329,-9.379 3.548,-9.404 10.527,-16.799 20.182,-21.384 10.358,-4.919 20.707,-10.418 30.716,-15.736 4.453,-2.366 8.904,-4.731 13.367,-7.054 l 1.081,-0.572 c 0.782,-0.417 1.565,-0.834 2.361,-1.218 0.553,-0.267 1.151,-0.337 1.714,-0.238 0.862,0.152 1.64,0.701 2.051,1.547 0.169,0.349 0.261,0.717 0.28,1.081 0.195,1.418 2.243,13.075 2.441,14.027 1.864,7.91 3.138,15.806 3.786,23.473 1.852,21.915 -4.314,42.561 -16.918,56.644"
             style="fill:#00296a;fill-opacity:1;fill-rule:nonzero;stroke:none"
             id="path1511" /></g><g
           id="g1513"
           transform="translate(343.9346,674.6504)"><path
             d="m 0,0 c 0,0 19.296,-27.59 28.314,-35.046 0,0 5.441,-6.475 19.272,-16.844 0,0 22.635,-16.609 24.29,-18.378 0,0 9.345,-8.294 12.446,-14.196 0,0 6.059,-8.963 8.378,-19.571 0,0 4.025,-16.219 1.137,-31.326 4.194,21.956 -12.604,50.67 -28.649,64.413 -11.919,10.21 -26.693,16.623 -37.704,27.987 -5.5,5.677 -10.532,11.817 -14.937,18.382 -2.557,3.811 -4.904,7.765 -7,11.849 C 3.557,-8.853 2.445,-3.496 0,0"
             style="fill:#b9d9ec;fill-opacity:1;fill-rule:nonzero;stroke:none"
             id="path1515" /></g><g
           id="g1551"
           transform="translate(241.3691,500.8955)"><path
             d="m 0,0 v -125.797 l 124.104,-66.001 v 126.925 z"
             style="fill:#d8292f;fill-opacity:1;fill-rule:nonzero;stroke:none"
             id="path1553" /></g><g
           id="g1555"
           transform="translate(244.7534,377.1338)"><path
             d="M 0,0 117.335,-62.402 V 56.839 L 0,118.174 Z m 120.72,-71.42 c -0.546,0 -1.092,0.132 -1.589,0.397 L -4.973,-5.022 c -1.106,0.586 -1.796,1.736 -1.796,2.988 v 125.796 c 0,1.185 0.618,2.282 1.631,2.896 1.013,0.613 2.271,0.652 3.321,0.103 L 122.288,61.889 c 1.117,-0.583 1.816,-1.739 1.816,-2.999 V -68.035 c 0,-1.188 -0.622,-2.29 -1.641,-2.902 -0.536,-0.321 -1.139,-0.483 -1.743,-0.483"
             style="fill:#000c20;fill-opacity:1;fill-rule:nonzero;stroke:none"
             id="path1557" /></g><g
           id="g1559"
           transform="translate(365.4736,568.5889)"><path
             d="M 0,0 -124.104,-67.693 0,-132.566 122.977,-67.693 Z"
             style="fill:#d8292f;fill-opacity:1;fill-rule:nonzero;stroke:none"
             id="path1561" /></g><g
           id="g1563"
           transform="translate(248.5537,500.96)"><path
             d="M 0,0 116.912,-61.113 232.762,0 116.912,63.77 Z m 116.919,-68.321 c -0.538,0 -1.076,0.128 -1.567,0.385 L -8.752,-3.063 c -1.108,0.579 -1.807,1.72 -1.817,2.969 -0.012,1.25 0.667,2.404 1.763,3.002 l 124.105,67.693 c 1.014,0.553 2.241,0.551 3.252,-0.007 L 241.527,2.901 c 1.091,-0.6 1.764,-1.751 1.753,-2.995 -0.01,-1.245 -0.704,-2.383 -1.805,-2.964 L 118.499,-67.93 c -0.494,-0.261 -1.038,-0.391 -1.58,-0.391"
             style="fill:#001725;fill-opacity:1;fill-rule:nonzero;stroke:none"
             id="path1565" /></g><g
           id="g1567"
           transform="translate(365.4736,309.0977)"><path
             d="M 0,0 122.977,63.181 V 190.67 L 0,125.797 Z"
             style="fill:#d8292f;fill-opacity:1;fill-rule:nonzero;stroke:none"
             id="path1569" /></g><g
           id="g1571"
           transform="translate(368.8579,432.8535)"><path
             d="m 0,0 v -118.211 l 116.207,59.702 V 61.302 Z m -3.385,-127.14 c -0.613,0 -1.224,0.166 -1.763,0.496 -1.008,0.615 -1.622,1.709 -1.622,2.889 V 2.042 c 0,1.256 0.696,2.407 1.807,2.993 l 122.975,64.873 c 1.049,0.552 2.313,0.515 3.326,-0.095 1.017,-0.612 1.638,-1.712 1.638,-2.898 V -60.574 c 0,-1.269 -0.71,-2.431 -1.838,-3.011 l -122.976,-63.18 c -0.487,-0.251 -1.017,-0.375 -1.547,-0.375"
             style="fill:#001725;fill-opacity:1;fill-rule:nonzero;stroke:none"
             id="path1573" /></g><g
           id="g1575"
           transform="translate(304.1846,403.2017)"><path
             d="M 0,0 C -0.079,0.038 2.392,14.009 2.513,14.522 4.3,22.104 5.578,29.82 6.233,37.584 7.827,56.451 3.235,77.349 -9.975,92.11 c -6.27,7.007 -13.956,12.402 -21.435,18.009 -12.172,9.124 -24.445,18.163 -34.638,29.53 -9.744,10.867 -18.103,22.882 -26.522,34.777 -0.157,0.222 -0.314,0.443 -0.47,0.665 0,0 -11.645,-44.689 11.345,-77.537 0,0 -7.158,-26.152 12.993,-40.87 0.284,-0.207 0.193,-3.142 0.242,-3.533 0.373,-2.981 1.108,-5.923 2.168,-8.734 3.396,-9.002 10.12,-15.73 18.752,-19.83 C -32.586,17.486 -18.049,9.394 -3.363,1.75 -2.244,1.168 -1.137,0.548 0,0"
             style="fill:#6cc5e9;fill-opacity:1;fill-rule:nonzero;stroke:none"
             id="path1577" /></g><g
           id="g1579"
           transform="translate(241.4531,461.2856)"><path
             d="m 0,0 c 0,0 0.703,-7.452 14.978,-9.42 0,0 16.203,-1.059 30.041,-15.231 l -4.664,8.122 -16.738,9.588 -8.905,3.087 z"
             style="fill:#b9d9ec;fill-opacity:1;fill-rule:nonzero;stroke:none"
             id="path1581" /></g><g
           id="g1583"
           transform="translate(307.605,441.0234)"><path
             d="m 0,0 c -0.624,-7.39 -1.854,-15.011 -3.655,-22.653 -0.056,-0.24 -0.319,-1.689 -0.598,-3.258 -1.341,0.599 -2.706,1.192 -2.79,1.233 -6.519,3.148 -13.059,6.256 -19.557,9.447 -5.467,2.684 -11.071,4.899 -16.322,8.05 -5.354,3.212 -10.415,6.994 -14.697,11.557 -2.837,3.024 -5.394,6.515 -6.768,10.465 -0.339,0.975 -0.616,1.986 -0.741,3.013 -0.025,0.2 0.047,0.895 -0.068,1.054 1.452,-2.003 4.694,-2.905 6.91,-3.659 2.662,-0.906 5.415,-1.496 8.165,-2.063 5.672,-1.17 11.217,-2.79 16.101,-5.985 4.658,-3.046 8.653,-6.975 12.378,-11.08 0.311,-0.342 0.64,-0.699 1.077,-0.85 0.437,-0.15 1.012,-0.009 1.184,0.42 0.08,0.201 0.061,0.426 0.035,0.641 -0.312,2.602 -1.434,5.064 -2.965,7.191 -3.722,5.173 -9.527,8.726 -15.138,11.526 -6.147,3.068 -12.758,5.567 -19.44,7.205 -22.441,6.007 -25.152,30.569 -25.477,36.899 0.093,0.445 0.074,0.897 -0.045,1.328 -0.001,0.103 -0.001,0.176 -0.001,0.176 15.493,-16.78 42.812,-13.613 57.28,-31.858 0.205,-0.259 5.244,-7.079 4.951,-3.404 -1.37,17.189 -25.676,25.049 -25.676,25.049 -21.899,6.341 -32.616,15.261 -40.353,29.561 -7.906,14.613 -9.391,33.336 -8.385,49.741 7.164,-10.112 14.614,-20.423 23.026,-29.803 9.974,-11.125 21.986,-20.121 33.601,-28.821 l 4.161,-3.109 c 6.383,-4.747 12.984,-9.656 18.309,-15.608 C -3.927,39.475 1.722,20.375 0,0 m -5.641,-33.483 c 0.02,0.032 0.053,0.082 0.084,0.131 -0.009,-0.051 -0.019,-0.109 -0.028,-0.161 -0.019,0.01 -0.038,0.02 -0.056,0.03 m -5.651,89.653 c -5.705,6.376 -12.538,11.458 -19.146,16.373 l -4.146,3.097 c -11.396,8.536 -23.18,17.362 -32.783,28.072 -9.031,10.071 -17.023,21.375 -24.752,32.307 l -2.037,2.879 c -0.635,0.897 -1.769,1.3 -2.811,1.148 -1.08,-0.197 -1.948,-1.003 -2.225,-2.065 -0.484,-1.857 -11.47,-45.415 11.042,-78.815 -1.216,-5.667 -4.587,-27.887 13.409,-41.864 0.012,-0.419 0.016,-0.887 0.018,-1.155 0.005,-0.564 0.022,-1.011 0.041,-1.168 0.398,-3.183 1.182,-6.339 2.329,-9.379 3.548,-9.404 10.526,-16.799 20.181,-21.384 10.359,-4.919 20.708,-10.418 30.717,-15.736 4.453,-2.367 8.903,-4.731 13.367,-7.055 l 1.081,-0.571 c 0.782,-0.417 1.564,-0.834 2.361,-1.218 0.553,-0.267 1.15,-0.338 1.714,-0.238 0.861,0.152 1.64,0.701 2.051,1.547 0.169,0.349 0.26,0.716 0.28,1.081 0.194,1.418 2.242,13.075 2.441,14.027 1.864,7.91 3.138,15.806 3.785,23.472 1.852,21.916 -4.314,42.562 -16.917,56.645"
             style="fill:#00296a;fill-opacity:1;fill-rule:nonzero;stroke:none"
             id="path1585" /></g><g
           id="g1587"
           transform="translate(213.0039,570.7407)"><path
             d="m 0,0 c 0,0 19.296,-27.59 28.314,-35.046 0,0 5.441,-6.475 19.272,-16.844 0,0 22.635,-16.61 24.29,-18.378 0,0 9.345,-8.294 12.446,-14.196 0,0 6.059,-8.963 8.378,-19.571 0,0 4.025,-16.219 1.137,-31.326 4.194,21.956 -12.603,50.67 -28.649,64.413 -11.919,10.21 -26.693,16.623 -37.704,27.987 -5.5,5.676 -10.531,11.817 -14.937,18.382 -2.557,3.811 -4.904,7.765 -7,11.849 C 3.557,-8.854 2.445,-3.496 0,0"
             style="fill:#b9d9ec;fill-opacity:1;fill-rule:nonzero;stroke:none"
             id="path1589" /></g><g
           id="g1591"
           transform="translate(287.436,526.0229)"><path
             d="m 0,0 121.123,-67.271 v -23.372 l 27.929,13.58 v 24.525 L 29.279,15.97 Z"
             style="fill:#9e2326;fill-opacity:1;fill-rule:nonzero;stroke:none"
             id="path1593" /></g><g
           id="g1595"
           transform="translate(294.4561,525.9966)"><path
             d="m 0,0 115.747,-64.285 c 1.074,-0.597 1.741,-1.73 1.741,-2.96 v -17.962 l 21.159,10.289 v 20.443 L 22.219,12.12 Z m 114.104,-94.001 c -0.625,0 -1.25,0.173 -1.795,0.515 -0.99,0.618 -1.59,1.703 -1.59,2.869 v 21.38 L -8.664,-2.933 c -1.078,0.6 -1.745,1.739 -1.74,2.973 0.004,1.234 0.68,2.368 1.764,2.958 l 29.278,15.97 c 1.033,0.562 2.282,0.552 3.301,-0.032 l 119.774,-68.509 c 1.054,-0.604 1.704,-1.724 1.704,-2.939 v -24.524 c 0,-1.296 -0.739,-2.478 -1.905,-3.045 l -27.929,-13.58 c -0.469,-0.228 -0.976,-0.34 -1.479,-0.34"
             style="fill:#001725;fill-opacity:1;fill-rule:nonzero;stroke:none"
             id="path1597" /></g><g
           id="g1599"
           transform="translate(399.5781,394.3838)"><path
             d="m 0,0 c -1.219,0 -2.391,0.681 -2.96,1.851 -0.796,1.634 -0.116,3.603 1.518,4.398 l 12.115,5.898 c 1.633,0.796 3.602,0.116 4.398,-1.517 0.796,-1.634 0.116,-3.603 -1.517,-4.399 L 1.438,0.333 C 0.975,0.106 0.483,0 0,0"
             style="fill:#9e2326;fill-opacity:1;fill-rule:nonzero;stroke:none"
             id="path1601" /></g><g
           id="g1603"
           transform="translate(420.9902,406.0654)"><path
             d="m 0,0 c -1.202,0 -2.36,0.662 -2.939,1.809 -0.82,1.622 -0.168,3.601 1.455,4.42 l 38.386,19.376 c 1.622,0.819 3.603,0.169 4.419,-1.455 0.82,-1.621 0.169,-3.6 -1.454,-4.419 L 1.48,0.354 C 1.005,0.115 0.499,0 0,0"
             style="fill:#9e2326;fill-opacity:1;fill-rule:nonzero;stroke:none"
             id="path1605" /></g><g
           id="g1607"
           transform="translate(399.6729,356.9102)"><path
             d="m 0,0 c -1.254,0 -2.459,0.7 -3.045,1.903 -0.819,1.681 -0.12,3.706 1.561,4.526 l 12.463,6.068 c 1.677,0.817 3.705,0.119 4.524,-1.561 0.818,-1.68 0.119,-3.707 -1.562,-4.525 L 1.479,0.342 C 1.003,0.109 0.498,0 0,0"
             style="fill:#9e2326;fill-opacity:1;fill-rule:nonzero;stroke:none"
             id="path1609" /></g><g
           id="g1611"
           transform="translate(421.6982,368.9268)"><path
             d="m 0,0 c -1.236,0 -2.428,0.681 -3.023,1.861 -0.843,1.668 -0.173,3.704 1.497,4.546 l 39.487,19.932 c 1.668,0.84 3.705,0.174 4.546,-1.496 0.843,-1.668 0.173,-3.704 -1.496,-4.546 L 1.522,0.365 C 1.034,0.118 0.514,0 0,0"
             style="fill:#9e2326;fill-opacity:1;fill-rule:nonzero;stroke:none"
             id="path1613" /></g><g
           id="g1615"
           transform="translate(448.7256,401.1074)"><path
             d="m 0,0 c -1.254,0 -2.46,0.701 -3.046,1.904 -0.818,1.681 -0.119,3.706 1.562,4.525 l 12.461,6.068 c 1.677,0.818 3.705,0.12 4.525,-1.562 C 16.32,9.254 15.62,7.229 13.94,6.41 L 1.479,0.343 C 1.002,0.11 0.497,0 0,0"
             style="fill:#9e2326;fill-opacity:1;fill-rule:nonzero;stroke:none"
             id="path1617" /></g><g
           id="g1619"
           transform="translate(399.5781,376.0283)"><path
             d="m 0,0 c -1.201,0 -2.36,0.662 -2.939,1.81 -0.819,1.621 -0.168,3.6 1.455,4.419 l 38.386,19.376 c 1.619,0.817 3.601,0.168 4.42,-1.455 0.82,-1.621 0.168,-3.6 -1.455,-4.419 L 1.48,0.354 C 1.005,0.115 0.499,0 0,0"
             style="fill:#9e2326;fill-opacity:1;fill-rule:nonzero;stroke:none"
             id="path1621" /></g></g></g></g></svg>
